<?xml version="1.0" encoding="UTF-8"?>
<!DOCTYPE svg PUBLIC "-//W3C//DTD SVG 1.1//EN" "http://www.w3.org/Graphics/SVG/1.1/DTD/svg11.dtd">
<!-- Creator: CorelDRAW 2021 (64-Bit) -->
<svg xmlns="http://www.w3.org/2000/svg" xml:space="preserve" width="5.90551in" height="2.95276in" version="1.1" style="shape-rendering:geometricPrecision; text-rendering:geometricPrecision; image-rendering:optimizeQuality; fill-rule:evenodd; clip-rule:evenodd"
viewBox="0 0 1676.21 838.11"
 xmlns:xlink="http://www.w3.org/1999/xlink"
 xmlns:xodm="http://www.corel.com/coreldraw/odm/2003">
 <defs>
  <style type="text/css">
   <![CDATA[
    .fil0 {fill:#77B7B7}
    .fil1 {fill:#BE3A45}
    .fil2 {fill:#F15D4F}
    .fil3 {fill:#F89B4B}
    .fil4 {fill:#FBBD96;fill-rule:nonzero}
   ]]>
  </style>
 </defs>
 <g id="Layer_x0020_1">
  <metadata id="CorelCorpID_0Corel-Layer"/>
  <path className="fil0" d="M1282.72 404.07c109.3,111.95 176.71,264.99 176.77,433.79l0 0.24 216.72 0 -0 -0.17c-0.05,-228.68 -91.72,-435.91 -240.25,-587.1l-153.24 153.24z"/>
  <path className="fil1" d="M224.59 267.22c-139.18,149.49 -224.41,349.9 -224.58,570.24 0,0.22 -0.01,0.44 -0.01,0.65l216.72 0c0,-0.2 0.01,-0.39 0.01,-0.59 0.15,-160.51 61.16,-306.78 161.2,-416.96l-153.34 -153.34z"/>
  <path className="fil2" d="M812.08 0.44c-224.71,6.86 -427.12,102.18 -573.68,252.29l153.24 153.24c107.34,-110.87 255.59,-181.87 420.44,-188.67l0 -216.86z"/>
  <path className="fil3" d="M838.11 0c-2.01,0 -4.01,0.06 -6.02,0.08l0 216.72c2.01,-0.02 4.01,-0.08 6.02,-0.08 167.09,0 318.75,65.96 430.42,173.25l153.24 -153.24c-150.91,-146.49 -356.73,-236.72 -583.66,-236.72z"/>
  <path className="fil4" d="M261.67 836.85c-3.91,0 -7.32,-0.77 -10.22,-2.32 -2.9,-1.55 -5.34,-3.71 -7.33,-6.48 -1.99,-2.78 -3.47,-6.12 -4.45,-10.03 -0.98,-3.91 -1.47,-8.2 -1.47,-12.87 0,-4.6 0.49,-8.83 1.47,-12.68 0.98,-3.85 2.46,-7.13 4.45,-9.84 1.99,-2.71 4.45,-4.83 7.38,-6.34 2.93,-1.51 6.36,-2.27 10.27,-2.27 3.97,0 7.44,0.76 10.41,2.27 2.96,1.51 5.41,3.63 7.33,6.34 1.92,2.71 3.36,5.99 4.31,9.84 0.95,3.85 1.42,8.07 1.42,12.68 0,4.67 -0.47,8.96 -1.42,12.87 -0.95,3.91 -2.4,7.25 -4.35,10.03 -1.96,2.77 -4.4,4.93 -7.33,6.48 -2.93,1.55 -6.42,2.32 -10.46,2.32zm0.09 -12.4c1.7,0 3.17,-0.5 4.4,-1.51 1.23,-1.01 2.24,-2.38 3.03,-4.12 0.79,-1.74 1.36,-3.77 1.7,-6.1 0.35,-2.33 0.52,-4.86 0.52,-7.57 0,-2.65 -0.19,-5.11 -0.57,-7.38 -0.38,-2.27 -0.96,-4.24 -1.75,-5.91 -0.79,-1.67 -1.8,-2.98 -3.03,-3.93 -1.23,-0.95 -2.7,-1.42 -4.4,-1.42 -1.7,0 -3.17,0.47 -4.4,1.42 -1.23,0.95 -2.24,2.26 -3.03,3.93 -0.79,1.67 -1.36,3.64 -1.7,5.91 -0.35,2.27 -0.52,4.73 -0.52,7.38 0,2.71 0.17,5.24 0.52,7.57 0.35,2.33 0.92,4.37 1.7,6.1 0.79,1.73 1.8,3.11 3.03,4.12 1.23,1.01 2.73,1.51 4.49,1.51z"/>
  <polygon className="fil4" points="1287.5,823.88 1297.81,823.88 1297.81,790.76 1287.88,796.06 1282.11,785.65 1299.8,775.91 1311.06,775.91 1311.06,823.88 1320.8,823.88 1320.8,835.51 1287.5,835.51 "/>
  <path id="_1" className="fil4" d="M1354.2 837.03c-3.91,0 -7.32,-0.77 -10.22,-2.32 -2.9,-1.55 -5.34,-3.71 -7.33,-6.48 -1.99,-2.78 -3.47,-6.12 -4.45,-10.03 -0.98,-3.91 -1.47,-8.2 -1.47,-12.87 0,-4.6 0.49,-8.83 1.47,-12.68 0.98,-3.85 2.46,-7.13 4.45,-9.84 1.99,-2.71 4.45,-4.83 7.38,-6.34 2.93,-1.51 6.36,-2.27 10.27,-2.27 3.97,0 7.44,0.76 10.41,2.27 2.96,1.51 5.41,3.63 7.33,6.34 1.92,2.71 3.36,5.99 4.31,9.84 0.95,3.85 1.42,8.07 1.42,12.68 0,4.67 -0.47,8.96 -1.42,12.87 -0.95,3.91 -2.4,7.25 -4.35,10.03 -1.96,2.77 -4.4,4.93 -7.33,6.48 -2.93,1.55 -6.42,2.32 -10.46,2.32zm0.09 -12.4c1.7,0 3.17,-0.5 4.4,-1.51 1.23,-1.01 2.24,-2.38 3.03,-4.12 0.79,-1.74 1.36,-3.77 1.7,-6.1 0.35,-2.33 0.52,-4.86 0.52,-7.57 0,-2.65 -0.19,-5.11 -0.57,-7.38 -0.38,-2.27 -0.96,-4.24 -1.75,-5.91 -0.79,-1.67 -1.8,-2.98 -3.03,-3.93 -1.23,-0.95 -2.7,-1.42 -4.4,-1.42 -1.7,0 -3.17,0.47 -4.4,1.42 -1.23,0.95 -2.24,2.26 -3.03,3.93 -0.79,1.67 -1.36,3.64 -1.7,5.91 -0.35,2.27 -0.52,4.73 -0.52,7.38 0,2.71 0.17,5.24 0.52,7.57 0.35,2.33 0.92,4.37 1.7,6.1 0.79,1.73 1.8,3.11 3.03,4.12 1.23,1.01 2.73,1.51 4.49,1.51z"/>
  <path id="_2" className="fil4" d="M1405.77 837.03c-3.91,0 -7.32,-0.77 -10.22,-2.32 -2.9,-1.55 -5.34,-3.71 -7.33,-6.48 -1.99,-2.78 -3.47,-6.12 -4.45,-10.03 -0.98,-3.91 -1.47,-8.2 -1.47,-12.87 0,-4.6 0.49,-8.83 1.47,-12.68 0.98,-3.85 2.46,-7.13 4.45,-9.84 1.99,-2.71 4.45,-4.83 7.38,-6.34 2.93,-1.51 6.36,-2.27 10.27,-2.27 3.97,0 7.44,0.76 10.41,2.27 2.96,1.51 5.41,3.63 7.33,6.34 1.92,2.71 3.36,5.99 4.31,9.84 0.95,3.85 1.42,8.07 1.42,12.68 0,4.67 -0.47,8.96 -1.42,12.87 -0.95,3.91 -2.4,7.25 -4.35,10.03 -1.96,2.77 -4.4,4.93 -7.33,6.48 -2.93,1.55 -6.42,2.32 -10.46,2.32zm0.09 -12.4c1.7,0 3.17,-0.5 4.4,-1.51 1.23,-1.01 2.24,-2.38 3.03,-4.12 0.79,-1.74 1.36,-3.77 1.7,-6.1 0.35,-2.33 0.52,-4.86 0.52,-7.57 0,-2.65 -0.19,-5.11 -0.57,-7.38 -0.38,-2.27 -0.96,-4.24 -1.75,-5.91 -0.79,-1.67 -1.8,-2.98 -3.03,-3.93 -1.23,-0.95 -2.7,-1.42 -4.4,-1.42 -1.7,0 -3.17,0.47 -4.4,1.42 -1.23,0.95 -2.24,2.26 -3.03,3.93 -0.79,1.67 -1.36,3.64 -1.7,5.91 -0.35,2.27 -0.52,4.73 -0.52,7.38 0,2.71 0.17,5.24 0.52,7.57 0.35,2.33 0.92,4.37 1.7,6.1 0.79,1.73 1.8,3.11 3.03,4.12 1.23,1.01 2.73,1.51 4.49,1.51z"/>
 </g>
</svg>
