<?xml version="1.0" encoding="UTF-8"?>
<!DOCTYPE svg PUBLIC "-//W3C//DTD SVG 1.1//EN" "http://www.w3.org/Graphics/SVG/1.1/DTD/svg11.dtd">
<!-- Creator: CorelDRAW 2020 (64-Bit) -->
<svg xmlns="http://www.w3.org/2000/svg" xml:space="preserve" width="8.6808mm" height="8.6517mm" version="1.1" style="shape-rendering:geometricPrecision; text-rendering:geometricPrecision; image-rendering:optimizeQuality; fill-rule:evenodd; clip-rule:evenodd"
viewBox="0 0 6.54 6.51"
 xmlns:xlink="http://www.w3.org/1999/xlink"
 xmlns:xodm="http://www.corel.com/coreldraw/odm/2003">
 <defs>
  <style type="text/css">
   <![CDATA[
    .fil0 {fill:#00A0E3}
   ]]>
  </style>
 </defs>
 <g id="Layer_x0020_1">
  <metadata id="CorelCorpID_0Corel-Layer"/>
  <g id="_1395008696192">
   <path className="fil0" d="M1.9 6.11c0.2,-0.83 -0.19,-0.64 1.78,-0.64 0.81,-0 1.61,-0.01 2.42,-0.01 -0.08,0.86 -0.76,0.65 -1.78,0.65 -0.8,0 -1.61,0.01 -2.41,-0zm-1.48 -4.72c-0,-0.32 0.1,-0.64 0.26,-0.84 0.17,0.18 0.14,0.53 0.12,0.84l-0.38 -0zm0.84 4.7c-0.22,-0.85 0.15,-4.97 -0.16,-5.67 0.56,-0.04 3.95,-0.07 4.1,0.06 0.19,0.16 0.1,4.05 0.1,4.58l-3.65 0.01c-0.09,0.4 0.05,1 -0.39,1.03zm4.45 -1.04c0,-1.06 0,-2.13 0,-3.19 0,-1.66 0.12,-1.86 -1.26,-1.86 -1.04,0 -2.09,0 -3.14,-0 -0.6,-0 -0.85,0.1 -1.09,0.5 -0.19,0.31 -0.27,0.88 -0.21,1.3l0.8 0.01c0,1 0,2 0,3.01 0,1.72 -0.1,1.7 1.28,1.7 0.98,0 1.97,-0 2.95,0 0.58,0 0.89,0.03 1.19,-0.33 0.23,-0.27 0.33,-0.7 0.29,-1.13l-0.82 0z"/>
   <path className="fil0" d="M2.94 1.74c0.04,-0.06 0.06,-0.25 0.06,-0.37l-0.29 -0.08c-0.07,-0.12 -0.05,-0.03 -0.05,-0.24l-0.39 -0.01 -0.01 0.27c-0.51,0.13 -0.4,0.6 -0.31,0.74 0.06,0.09 1.09,0.49 0.46,0.52 -0.16,0.01 -0.34,-0.08 -0.47,-0.11l-0.12 0.36 0.43 0.12 0.02 0.29 0.38 -0.03 0.02 -0.29c0.23,-0.06 0.3,-0.09 0.37,-0.29 0.22,-0.7 -0.7,-0.63 -0.69,-0.92 0.22,-0.1 0.37,-0.02 0.59,0.03z"/>
   <polygon className="fil0" points="1.86,4.38 4.89,4.38 4.91,3.98 1.88,3.98 "/>
   <polygon className="fil0" points="3.61,1.68 4.87,1.68 4.88,1.45 4.87,1.27 3.61,1.29 "/>
   <polygon className="fil0" points="3.61,3.45 4.88,3.46 4.86,3.05 3.61,3.07 "/>
   <polygon className="fil0" points="3.61,2.58 4.87,2.58 4.87,2.17 3.61,2.2 "/>
  </g>
 </g>
</svg>
