<?xml version="1.0" encoding="UTF-8"?>
<!DOCTYPE svg PUBLIC "-//W3C//DTD SVG 1.1//EN" "http://www.w3.org/Graphics/SVG/1.1/DTD/svg11.dtd">
<!-- Creator: CorelDRAW 2021 (64-Bit) -->
<svg xmlns="http://www.w3.org/2000/svg" xml:space="preserve" width="6.87514in" height="3.18211in" version="1.1" style="shape-rendering:geometricPrecision; text-rendering:geometricPrecision; image-rendering:optimizeQuality; fill-rule:evenodd; clip-rule:evenodd"
viewBox="0 0 2294.05 1061.78"
 xmlns:xlink="http://www.w3.org/1999/xlink"
 xmlns:xodm="http://www.corel.com/coreldraw/odm/2003">
 <defs>
  <style type="text/css">
   <![CDATA[
    .fil0 {fill:#FEFEFE}
    .fil2 {fill:#818285}
    .fil1 {fill:#F79422}
   ]]>
  </style>
 </defs>
 <g id="Layer_x0020_1">
  <metadata id="CorelCorpID_0Corel-Layer"/>
  <rect className="fil0" y="-0" width="2294.05" height="1061.78"/>
  <g id="_1291421568320">
   <path className="fil1" d="M1455.7 641.38c-1.58,-42.58 3.77,-38.09 45.05,-35.78 6.49,15.84 4.14,14.86 3.83,38.82l-48.88 -3.04zm-308.03 -15.73c-0.26,-14.55 -1.04,-20.59 13.26,-20.59 41.32,0 36.92,-4.65 35.39,38.4l-48.39 0.53 -0.26 -18.34zm-257.48 -155.07l-1.51 159.57c-1.1,0.7 -2.63,1.33 -3.54,1.64 -0.92,0.32 -2.48,1.15 -3.65,1.49 -29.56,8.68 25.42,-3.49 -7.97,2.04l-41.62 -0.26 0.41 -96.99c1.86,-10.77 1.03,-6.33 3.64,-12.26l32.98 -0.9 21.26 -54.33zm105.66 -109.08l-106.89 0 -18.68 58.59c11.6,13.89 -0.02,0.74 19.57,10.93l0.48 27.49c-41.92,6.75 -134.79,-10.3 -159.2,10.77 -11.85,20.62 -9.69,188.31 -3.85,219.87 33.04,14.82 93.6,7.94 137.07,7.97 11.66,-2.87 30.3,-39.3 34.84,-50.89l0.43 50.9 96.35 -0.01 -0.03 -175.7 202.46 -1.24c2.44,17.65 3.92,17.53 -2.76,33.6 -44.18,2.37 -117.42,-6.53 -153.23,4.62 -6.37,25.46 -5.44,109.07 -0.15,135.72l140.16 3.39c3.52,-16.93 7.06,-31.84 16.59,-44.6l1.09 41.23c23.42,6.4 78.28,4.64 103.79,1.46l-0.14 -175.55 202.38 0.36c6.3,47.58 -11.85,34 -57.86,33.9 -38.66,-0.09 -91.35,-11.76 -99.24,17.53 -1.3,4.82 -1.23,11.28 -1.3,16.42 -0.24,18.6 -3.29,94.51 6.47,103.67 26.94,15.13 91.14,5.17 126.51,5.2 9.74,-2.05 12.25,-10.55 16.59,-22.95 3.79,-10.85 5.88,-17.91 9.84,-26.59l0.46 49.55 104.04 -0.01 -0.16 -216.29c-41.96,-30.54 -50.21,-20.54 -135.4,-20.54 -68.92,0 -444.53,3.11 -480.22,-1.4l0 -97.37z"/>
   <path className="fil1" d="M514.63 688.12c0.11,-33.18 0.13,-66.38 0.07,-99.56 -0.07,-44.7 -13.15,-63.03 29.61,-63.68 52.9,-0.8 39.37,6.91 39.62,59.1 0.28,58.37 8.72,45.55 -44,50.96 -9.7,13.37 -19.82,40.83 -25.29,53.17zm-310 -102.23c-4.21,-90.24 -9.33,-85.75 51.34,-78.8l-1.9 36.4c-9.91,2.63 -38.19,-9.35 -49.43,42.39zm-109.6 -102.01l0 190.69c30.77,32.79 52.53,22.52 129.76,22.52 71.93,0 426.02,6.41 444.86,-5.41 17.4,-11.32 14.73,-19.85 14.51,-47.33 -0.43,-53.43 8.84,-158.21 -12.74,-182.64l-133.7 -1.4c-10.83,20.83 -19.59,44.24 -27.73,61.56l0.2 -160.38 -107.05 0 -20.66 58.2 13.26 8.14c10.33,6.66 4.21,-3.75 10.26,7.81l0 200.06 -200.64 -1.27 -1.19 -41.42 157.62 -1.81c2.76,-141.78 10.18,-133.18 -76.77,-133.03 -35.52,0.06 -71.07,0.07 -106.59,-0 -56.68,-0.11 -51.4,-8.22 -83.42,25.72z"/>
   <path className="fil2" d="M2043.78 641.86c-3.23,-43.45 2.11,-40.73 45.35,-36.42 3.71,10.75 3.87,7.15 3.53,20.21l-0.8 18.53 -48.08 -2.32zm155.24 54.43l0 -214.2c-36.58,-33.92 -51.53,-22.94 -111.22,-22.94 -44.43,0 -89.43,-0.71 -133.79,0.27l-21.2 59.64 161.57 0.38c4.42,47.1 -12.87,34.5 -57.55,34.37 -31.18,-0.09 -73.83,-4.86 -98.88,4.92 -6.19,29.03 -11.7,113.11 4.97,133.33 24.16,10.92 103.14,6.31 134.87,2.9l16.2 -47.55 1.05 49.28 103.99 -0.42z"/>
   <path className="fil2" d="M1647.63 495.88c0,44.86 -1.93,63.44 3.55,107.03 36.61,13.6 104.29,-4.34 147.26,6.22l1.16 23.38 -138.49 2.43 -21.05 61.62c188.15,-0.45 122.12,9.11 163.5,-51.91l-0.24 52.05c114.4,-3.2 100.65,22.92 100.65,-108.13 0,-45.32 -30.61,-38.82 -71.06,-38.64 -21.51,0.1 -100.84,9.33 -76.76,-18.91 9.85,-9.61 -8.1,-0.36 8.7,-4.42 5.63,-1.36 10.7,-1.43 16.62,-1.54 104.73,-1.88 106.97,24.62 125.49,-66.15l-128.92 0.33 -26.7 59.64 -2.08 -59.74c-22.72,0 -47.44,-1.04 -69.72,-0.41 -27.3,0.78 -31.9,9.04 -31.9,37.15z"/>
  </g>
 </g>
</svg>
